<svg width="18" height="19" viewBox="0 0 18 19" fill="none" xmlns="http://www.w3.org/2000/svg">
<path fill-rule="evenodd" clip-rule="evenodd" d="M1.5 14.875C1.5 15.9062 2.17313 16.75 3 16.75C3.36574 16.7418 3.7121 16.5839 3.95813 16.3131C4.14092 16.1093 4.42028 16.0212 4.68692 16.0835C4.95356 16.1457 5.1651 16.3482 5.23881 16.6119C5.31252 16.8756 5.23667 17.1585 5.04094 17.35C4.51375 17.9185 3.77528 18.2441 3 18.25C1.34531 18.25 0 16.7359 0 14.875C0 13.0141 1.34531 11.5 3 11.5C3.77528 11.5059 4.51375 11.8315 5.04094 12.4C5.23667 12.5915 5.31252 12.8744 5.23881 13.1381C5.1651 13.4018 4.95356 13.6043 4.68692 13.6665C4.42028 13.7288 4.14092 13.6407 3.95813 13.4369C3.7121 13.1661 3.36574 13.0082 3 13C2.17313 13 1.5 13.8438 1.5 14.875ZM8.9625 14.0603C8.5875 13.9516 8.19938 13.84 7.98281 13.7003C7.86469 13.6244 7.8675 13.6066 7.87781 13.5222C7.88067 13.3838 7.9506 13.2555 8.06531 13.1781C8.49656 12.8856 9.50344 13.0159 9.92437 13.1256C10.3251 13.231 10.7354 12.9915 10.8408 12.5908C10.9461 12.19 10.7067 11.7797 10.3059 11.6744C10.1072 11.6228 8.33719 11.185 7.22812 11.9331C6.75264 12.2518 6.44346 12.7654 6.38437 13.3347C6.19687 14.8234 7.66313 15.2481 8.54062 15.5012C9.67219 15.8284 9.77156 15.9625 9.73875 16.2128C9.70969 16.4387 9.62063 16.5259 9.53813 16.5812C9.10688 16.8681 8.11594 16.7275 7.70531 16.615C7.30857 16.5097 6.90091 16.743 6.79059 17.1383C6.68027 17.5337 6.90826 17.9443 7.30219 18.0597C7.76685 18.1815 8.24496 18.2445 8.72531 18.2472C9.27187 18.2472 9.87844 18.1534 10.365 17.8291C10.8513 17.5059 11.1674 16.9821 11.2266 16.4013C11.4375 14.7812 9.88875 14.3284 8.9625 14.0603ZM14.9625 14.0603C14.5875 13.9516 14.1994 13.84 13.9828 13.7003C13.8656 13.6244 13.8675 13.6066 13.8778 13.5222C13.8807 13.3838 13.9506 13.2555 14.0653 13.1781C14.4966 12.8856 15.5034 13.0159 15.9234 13.1256C16.3242 13.231 16.7345 12.9915 16.8398 12.5908C16.9452 12.19 16.7058 11.7797 16.305 11.6744C16.1072 11.6228 14.3363 11.185 13.2272 11.9331C12.7538 12.253 12.4465 12.7663 12.3881 13.3347C12.2006 14.8234 13.6678 15.2481 14.5444 15.5012C15.675 15.8284 15.7744 15.9625 15.7425 16.2128C15.7134 16.4387 15.6244 16.5259 15.5409 16.5812C15.1097 16.8681 14.1197 16.7275 13.7091 16.615C13.4505 16.543 13.1731 16.6144 12.9815 16.8023C12.7898 16.9902 12.713 17.2661 12.7799 17.5261C12.8469 17.786 13.0474 17.9905 13.3059 18.0625C13.7709 18.1843 14.2493 18.2473 14.73 18.25C15.2756 18.25 15.8831 18.1562 16.3697 17.8319C16.8557 17.5086 17.1715 16.9848 17.2303 16.4041C17.4375 14.7812 15.8888 14.3284 14.9616 14.0603H14.9625ZM0.75 8.5V1.75C0.75 0.921573 1.42157 0.25 2.25 0.25H11.25C11.449 0.249844 11.6399 0.328758 11.7806 0.469375L17.0306 5.71938C17.1712 5.86015 17.2502 6.05103 17.25 6.25V8.5C17.25 8.91421 16.9142 9.25 16.5 9.25C16.0858 9.25 15.75 8.91421 15.75 8.5V7H11.25C10.8358 7 10.5 6.66421 10.5 6.25V1.75H2.25V8.5C2.25 8.91421 1.91421 9.25 1.5 9.25C1.08579 9.25 0.75 8.91421 0.75 8.5ZM12 5.5H14.6887L12 2.81031V5.5Z" fill="#0D141C"/>
</svg>
