<svg width="15" height="21" viewBox="0 0 15 21" fill="none" xmlns="http://www.w3.org/2000/svg">
<path fill-rule="evenodd" clip-rule="evenodd" d="M13.25 7C14.5413 6.03153 15.068 4.34543 14.5576 2.81415C14.0471 1.28286 12.6141 0.25 11 0.25H4.25C2.63589 0.25 1.20287 1.28286 0.692438 2.81415C0.18201 4.34543 0.708709 6.03153 2 7C1.03279 7.72485 0.474258 8.87144 0.499727 10.0798C0.525197 11.2883 1.13155 12.4103 2.12844 13.0938C0.586677 14.2659 0.0680227 16.3529 0.881675 18.1104C1.69533 19.868 3.62215 20.8228 5.51345 20.4057C7.40475 19.9885 8.75116 18.3118 8.75 16.375V13C10.4069 14.2426 12.7574 13.9069 14 12.25C15.2426 10.5931 14.9069 8.24264 13.25 7ZM13.25 4C13.25 5.24264 12.2426 6.25 11 6.25H8.75V1.75H11C12.2426 1.75 13.25 2.75736 13.25 4ZM2 4C2 2.75736 3.00736 1.75 4.25 1.75H7.25V6.25H4.25C3.00736 6.25 2 5.24264 2 4ZM4.25 12.25C3.00736 12.25 2 11.2426 2 10C2 8.75736 3.00736 7.75 4.25 7.75H7.25V12.25H4.25ZM7.25 16.375C7.25 17.8247 6.07475 19 4.625 19C3.17525 19 2 17.8247 2 16.375C2 14.9253 3.17525 13.75 4.625 13.75H7.25V16.375ZM11 12.25C9.75736 12.25 8.75 11.2426 8.75 10C8.75 8.75736 9.75736 7.75 11 7.75C12.2426 7.75 13.25 8.75736 13.25 10C13.25 11.2426 12.2426 12.25 11 12.25Z" fill="#0D141C"/>
</svg>
