<svg width="24" height="12" viewBox="0 0 24 12" fill="none" xmlns="http://www.w3.org/2000/svg">
<path fill-rule="evenodd" clip-rule="evenodd" d="M23.25 5.25H17.1956C16.8212 2.66864 14.6084 0.753645 12 0.753645C9.39163 0.753645 7.17881 2.66864 6.80438 5.25H0.75C0.335786 5.25 0 5.58579 0 6C0 6.41421 0.335786 6.75 0.75 6.75H6.80438C7.17881 9.33136 9.39163 11.2464 12 11.2464C14.6084 11.2464 16.8212 9.33136 17.1956 6.75H23.25C23.6642 6.75 24 6.41421 24 6C24 5.58579 23.6642 5.25 23.25 5.25ZM12 9.75C9.92893 9.75 8.25 8.07107 8.25 6C8.25 3.92893 9.92893 2.25 12 2.25C14.0711 2.25 15.75 3.92893 15.75 6C15.75 8.07107 14.0711 9.75 12 9.75Z" fill="#0D141C"/>
</svg>
