<svg width="22" height="19" viewBox="0 0 22 19" fill="none" xmlns="http://www.w3.org/2000/svg">
<path fill-rule="evenodd" clip-rule="evenodd" d="M10 12.25C10 12.6642 9.66421 13 9.25 13H8.5V17.5C8.5 17.9142 8.16421 18.25 7.75 18.25C7.33579 18.25 7 17.9142 7 17.5V13H6.25C5.83579 13 5.5 12.6642 5.5 12.25C5.5 11.8358 5.83579 11.5 6.25 11.5H9.25C9.66421 11.5 10 11.8358 10 12.25ZM4 11.5C3.58579 11.5 3.25 11.8358 3.25 12.25V14.125H1.75V12.25C1.75 11.8358 1.41421 11.5 1 11.5C0.585786 11.5 0.25 11.8358 0.25 12.25V17.5C0.25 17.9142 0.585786 18.25 1 18.25C1.41421 18.25 1.75 17.9142 1.75 17.5V15.625H3.25V17.5C3.25 17.9142 3.58579 18.25 4 18.25C4.41421 18.25 4.75 17.9142 4.75 17.5V12.25C4.75 11.8358 4.41421 11.5 4 11.5ZM20.5 16.75H19.375V12.25C19.375 11.8358 19.0392 11.5 18.625 11.5C18.2108 11.5 17.875 11.8358 17.875 12.25V17.5C17.875 17.9142 18.2108 18.25 18.625 18.25H20.5C20.9142 18.25 21.25 17.9142 21.25 17.5C21.25 17.0858 20.9142 16.75 20.5 16.75ZM16.2006 11.5272C15.8757 11.4369 15.5305 11.5746 15.3569 11.8638L13.75 14.5422L12.1431 11.8638C11.9696 11.5746 11.6245 11.4368 11.2996 11.5269C10.9747 11.617 10.7498 11.9128 10.75 12.25V17.5C10.75 17.9142 11.0858 18.25 11.5 18.25C11.9142 18.25 12.25 17.9142 12.25 17.5V14.9575L13.1069 16.3862C13.2424 16.6122 13.4865 16.7504 13.75 16.7504C14.0135 16.7504 14.2576 16.6122 14.3931 16.3862L15.25 14.9575V17.5C15.25 17.9142 15.5858 18.25 16 18.25C16.4142 18.25 16.75 17.9142 16.75 17.5V12.25C16.7501 11.913 16.5253 11.6173 16.2006 11.5272ZM17.5 9.25C17.0858 9.25 16.75 8.91421 16.75 8.5V7H12.25C11.8358 7 11.5 6.66421 11.5 6.25V1.75H3.25V8.5C3.25 8.91421 2.91421 9.25 2.5 9.25C2.08579 9.25 1.75 8.91421 1.75 8.5V1.75C1.75 0.921573 2.42157 0.25 3.25 0.25H12.25C12.449 0.249844 12.6399 0.328758 12.7806 0.469375L18.0306 5.71938C18.1712 5.86015 18.2502 6.05103 18.25 6.25V8.5C18.25 8.91421 17.9142 9.25 17.5 9.25ZM15.6897 5.5L13 2.81031V5.5H15.6897Z" fill="#0D141C"/>
</svg>
