<svg width="19" height="20" viewBox="0 0 19 20" fill="none" xmlns="http://www.w3.org/2000/svg">
<path fill-rule="evenodd" clip-rule="evenodd" d="M18.0306 5.71938L12.7806 0.469375C12.6399 0.328758 12.449 0.249844 12.25 0.25H3.25C2.42157 0.25 1.75 0.921573 1.75 1.75V8.5C1.75 8.91421 2.08579 9.25 2.5 9.25C2.91421 9.25 3.25 8.91421 3.25 8.5V1.75H11.5V6.25C11.5 6.66421 11.8358 7 12.25 7H16.75V18.25H14.5C14.0858 18.25 13.75 18.5858 13.75 19C13.75 19.4142 14.0858 19.75 14.5 19.75H16.75C17.5784 19.75 18.25 19.0784 18.25 18.25V6.25C18.2502 6.05103 18.1712 5.86015 18.0306 5.71938ZM13 2.81031L15.6897 5.5H13V2.81031ZM11.8572 16.4041C11.798 16.9849 11.4819 17.5087 10.9956 17.8319C10.5091 18.1562 9.90625 18.25 9.35594 18.25C8.87528 18.2473 8.39686 18.1843 7.93188 18.0625C7.53294 17.9509 7.29998 17.5371 7.41156 17.1381C7.52314 16.7392 7.937 16.5062 8.33594 16.6178C8.74656 16.7303 9.74219 16.8709 10.1687 16.5841C10.2513 16.5287 10.3403 16.4416 10.3694 16.2156C10.4012 15.9653 10.3028 15.8312 9.17125 15.5041C8.29469 15.2509 6.8275 14.8263 7.015 13.3375C7.07421 12.7682 7.38336 12.2547 7.85875 11.9359C8.96875 11.1859 10.7378 11.6256 10.9366 11.6772C11.3373 11.7826 11.5768 12.1928 11.4714 12.5936C11.366 12.9943 10.9558 13.2338 10.555 13.1284C10.1341 13.0187 9.12719 12.8884 8.69594 13.1809C8.58122 13.2583 8.51129 13.3867 8.50844 13.525C8.49719 13.6094 8.49531 13.6272 8.6125 13.7031C8.82906 13.8428 9.21719 13.9544 9.59219 14.0631C10.5147 14.3284 12.0672 14.7812 11.8572 16.4041ZM5.5 12.25V15.8125C5.5 17.1587 4.40869 18.25 3.0625 18.25C1.71631 18.25 0.625 17.1587 0.625 15.8125C0.625 15.3983 0.960786 15.0625 1.375 15.0625C1.78921 15.0625 2.125 15.3983 2.125 15.8125C2.125 16.3303 2.54473 16.75 3.0625 16.75C3.58027 16.75 4 16.3303 4 15.8125V12.25C4 11.8358 4.33579 11.5 4.75 11.5C5.16421 11.5 5.5 11.8358 5.5 12.25Z" fill="#0D141C"/>
</svg>
