<svg width="17" height="21" viewBox="0 0 17 21" fill="none" xmlns="http://www.w3.org/2000/svg">
<path fill-rule="evenodd" clip-rule="evenodd" d="M8.25 4.5C6.17893 4.5 4.5 6.17893 4.5 8.25C4.5 10.3211 6.17893 12 8.25 12C10.3211 12 12 10.3211 12 8.25C12 6.17893 10.3211 4.5 8.25 4.5ZM8.25 10.5C7.00736 10.5 6 9.49264 6 8.25C6 7.00736 7.00736 6 8.25 6C9.49264 6 10.5 7.00736 10.5 8.25C10.5 9.49264 9.49264 10.5 8.25 10.5ZM8.25 0C3.69579 0.00516641 0.00516653 3.69579 0 8.25C0 11.1938 1.36031 14.3138 3.9375 17.2734C5.09552 18.6108 6.39886 19.8151 7.82344 20.8641C8.08177 21.045 8.42573 21.045 8.68406 20.8641C10.106 19.8147 11.4068 18.6104 12.5625 17.2734C15.1359 14.3138 16.5 11.1938 16.5 8.25C16.4948 3.69579 12.8042 0.00516641 8.25 0ZM8.25 19.3125C6.70031 18.0938 1.5 13.6172 1.5 8.25C1.5 4.52208 4.52208 1.5 8.25 1.5C11.9779 1.5 15 4.52208 15 8.25C15 13.6153 9.79969 18.0938 8.25 19.3125Z" fill="#0D141C"/>
</svg>
