<svg width="22" height="18" viewBox="0 0 22 18" fill="none" xmlns="http://www.w3.org/2000/svg">
<path fill-rule="evenodd" clip-rule="evenodd" d="M21.1053 5.34375L11.3553 0.09375C11.1335 -0.0255907 10.8665 -0.0255907 10.6447 0.09375L0.894688 5.34375C0.652945 5.47379 0.501556 5.7255 0.5 6V12C0.499837 12.2762 0.651469 12.5301 0.894688 12.6609L10.6447 17.9109C10.8665 18.0303 11.1335 18.0303 11.3553 17.9109L21.1053 12.6609C21.3485 12.5301 21.5002 12.2762 21.5 12V6C21.4984 5.7255 21.3471 5.47379 21.1053 5.34375ZM20 10.7447L16.7609 9L20 7.25531V10.7447ZM15.1784 8.14781L11.75 6.30188V2.00531L19.1684 6L15.1784 8.14781ZM11 10.3978L8.40312 9L11 7.60219L13.5969 9L11 10.3978ZM10.25 2.00531V6.30188L6.82156 8.14781L2.83156 6L10.25 2.00531ZM2 7.25531L5.23906 9L2 10.7447V7.25531ZM6.82156 9.85219L10.25 11.6981V15.9947L2.83156 12L6.82156 9.85219ZM11.75 15.9947V11.6981L15.1784 9.85219L19.1684 12L11.75 15.9947Z" fill="#0D141C"/>
</svg>
