<svg width="20" height="21" viewBox="0 0 20 21" fill="none" xmlns="http://www.w3.org/2000/svg">
<path fill-rule="evenodd" clip-rule="evenodd" d="M19.2887 4.05813L10.2887 0.308125C10.1041 0.230304 9.89589 0.230304 9.71125 0.308125L0.71125 4.05813C0.3982 4.18871 0.211762 4.51315 0.256562 4.84937L1.75656 16.0994C1.78932 16.3458 1.94206 16.56 2.16437 16.6712L9.66438 20.4212C9.87564 20.527 10.1244 20.527 10.3356 20.4212L17.8356 16.6712C18.0579 16.56 18.2107 16.3458 18.2434 16.0994L19.7434 4.84937C19.7882 4.51315 19.6018 4.18871 19.2887 4.05813ZM16.8091 15.5069L10 18.9119L3.19094 15.5069L1.81938 5.21875L10 1.81281L18.1806 5.21875L16.8091 15.5069ZM9.34375 5.88625L5.59375 12.6362C5.46379 12.8707 5.46879 13.1567 5.60686 13.3865C5.74493 13.6162 5.99509 13.7549 6.26311 13.7502C6.53113 13.7455 6.77629 13.5982 6.90625 13.3638L7.9375 11.5H12.0625L13.0938 13.3638C13.2237 13.5982 13.4689 13.7455 13.7369 13.7502C14.0049 13.7549 14.2551 13.6162 14.3931 13.3865C14.5312 13.1567 14.5362 12.8707 14.4062 12.6362L10.6562 5.88625C10.5242 5.64751 10.2728 5.49934 10 5.49934C9.72716 5.49934 9.47584 5.64751 9.34375 5.88625ZM11.2253 10H8.77469L10 7.79406L11.2253 10Z" fill="#0D141C"/>
</svg>
