<svg width="20" height="22" viewBox="0 0 20 22" fill="none" xmlns="http://www.w3.org/2000/svg">
<path fill-rule="evenodd" clip-rule="evenodd" d="M18.97 5.20156L10.72 0.6875C10.2717 0.440983 9.72835 0.440983 9.28 0.6875L1.03 5.20437C0.550138 5.46693 0.251242 5.96988 0.25 6.51687V15.4831C0.251242 16.0301 0.550138 16.5331 1.03 16.7956L9.28 21.3116C9.72808 21.5591 10.2719 21.5591 10.72 21.3116L18.97 16.7956C19.4499 16.5331 19.7488 16.0301 19.75 15.4831V6.51687C19.7498 5.96887 19.4507 5.4646 18.97 5.20156ZM13.75 13.25V17.9459L10.75 19.5884V11.4444L18.25 7.33813V10.3381L14.14 12.5881C13.8983 12.7204 13.7486 12.9745 13.75 13.25ZM5.86 12.5938L1.75 10.3438V7.34375L9.25 11.45V19.5941L6.25 17.9459V13.25C6.24938 12.9765 6.09993 12.725 5.86 12.5938ZM5.79437 4.30531L9.63813 6.41C9.86243 6.53273 10.1338 6.53273 10.3581 6.41L14.2019 4.30531L17.4344 6.07438L10 10.145L2.56187 6.0725L5.79437 4.30531ZM10 2L12.6438 3.4475L10 4.89594L7.35625 3.44844L10 2ZM1.75 12.0519L4.75 13.6944V17.1247L1.75 15.4831V12.0519ZM15.25 17.1247V13.6944L18.25 12.0519V15.4831L15.25 17.1247Z" fill="#0D141C"/>
</svg>
